TITLE: studio 20230801 v 0
FCM: NON-DROP FRAME

000  AX       V     C        13:36:35:05 13:36:36:07 00:00:00:00 00:00:01:02
* FROM CLIP NAME: A041_07111335_C011.braw

001  AX       V     C        12:49:20:10 12:49:23:07 00:00:01:02 00:00:03:24
* FROM CLIP NAME: A041_07111248_C003.braw

002  AX       V     C        12:51:18:04 12:51:19:24 00:00:03:24 00:00:05:19
* FROM CLIP NAME: A041_07111251_C004.braw

003  AX       V     C        13:00:11:04 13:00:13:02 00:00:05:19 00:00:07:17
* FROM CLIP NAME: A041_07111256_C006.braw

004  AX       V     C        13:34:05:23 13:34:07:18 00:00:07:17 00:00:09:12
* FROM CLIP NAME: A041_07111328_C009.braw

005  AX       V     C        12:51:28:04 12:51:29:03 00:00:09:12 00:00:10:11
* FROM CLIP NAME: A041_07111251_C004.braw

006  AX       V     C        12:59:06:17 12:59:08:18 00:00:10:11 00:00:04:12
* FROM CLIP NAME: A041_07111256_C006.braw

007  AX       V     C        13:16:02:11 13:16:03:19 00:00:04:12 00:00:05:20
* FROM CLIP NAME: A041_07111315_C008.braw

008  AX       V     C        13:36:44:22 13:36:47:19 00:00:05:20 00:00:08:17
* FROM CLIP NAME: A041_07111335_C011.braw

009  AX       V     C        12:56:50:06 12:56:52:10 00:00:08:17 00:00:10:21
* FROM CLIP NAME: A041_07111256_C006.braw

010  AX       V     C        12:51:25:01 12:51:26:11 00:00:10:21 00:00:12:06
* FROM CLIP NAME: A041_07111251_C004.braw

011  AX       V     C        13:33:32:09 13:33:36:02 00:00:12:06 00:00:16:08
* FROM CLIP NAME: A041_07111328_C009.braw

012  AX       V     C        13:02:32:15 13:02:35:14 00:00:16:08 00:00:19:07
* FROM CLIP NAME: A041_07111302_C007.braw

013  AX       V     C        13:38:35:10 13:38:37:20 00:00:19:07 00:00:21:17
* FROM CLIP NAME: A041_07111338_C012.braw

014  AX       V     C        12:51:35:03 12:51:36:12 00:00:21:17 00:00:23:01
* FROM CLIP NAME: A041_07111251_C004.braw

015  AX       V     C        13:16:31:02 13:16:32:05 00:00:23:01 00:00:24:04
* FROM CLIP NAME: A041_07111315_C008.braw

016  AX       V     C        12:56:32:03 12:56:34:02 00:00:24:04 00:00:26:03
* FROM CLIP NAME: A041_07111256_C006.braw

017  AX       V     C        13:36:49:23 13:36:51:11 00:00:26:03 00:00:27:16
* FROM CLIP NAME: A041_07111335_C011.braw

018  AX       V     C        13:01:01:17 13:01:03:05 00:00:27:16 00:00:29:04
* FROM CLIP NAME: A041_07111256_C006.braw

019  AX       V     C        12:59:49:01 12:59:52:09 00:00:29:04 00:00:32:03
* FROM CLIP NAME: A041_07111256_C006.braw

020  BL       V     C        00:01:40:24 00:02:30:18 00:00:32:03 00:01:21:22
* FROM CLIP NAME: Solid Color

021  AX       V     C        13:33:53:19 13:33:55:07 00:01:21:22 00:01:23:10
* FROM CLIP NAME: A041_07111328_C009.braw

022  AX       V     C        13:16:26:11 13:16:27:21 00:01:23:10 00:01:24:20
* FROM CLIP NAME: A041_07111315_C008.braw

023  AX       V     C        13:31:19:18 13:31:22:22 00:01:24:20 00:01:27:24
* FROM CLIP NAME: A041_07111328_C009.braw

024  AX       V     C        12:51:14:18 12:51:16:07 00:01:27:24 00:01:29:13
* FROM CLIP NAME: A041_07111251_C004.braw

025  AX       V     C        13:28:49:15 13:28:51:12 00:01:29:13 00:01:31:10
* FROM CLIP NAME: A041_07111328_C009.braw

026  AX       V     C        12:43:50:21 12:43:51:23 00:01:31:10 00:01:32:12
* FROM CLIP NAME: A041_07111243_C001.braw

027  AX       V     C        13:29:29:10 13:29:32:17 00:01:32:12 00:01:35:19
* FROM CLIP NAME: A041_07111328_C009.braw

028  AX       V     C        13:16:05:24 13:16:08:17 00:01:35:19 00:01:30:12
* FROM CLIP NAME: A041_07111315_C008.braw

029  AX       V     C        12:58:29:04 12:58:30:09 00:01:30:12 00:01:31:08
* FROM CLIP NAME: A041_07111256_C006.braw

030  AX       V     C        13:30:06:15 13:30:09:18 00:01:31:08 00:01:25:11
* FROM CLIP NAME: A041_07111328_C009.braw

031  AX       V     C        13:38:40:03 13:38:44:00 00:01:25:11 00:01:29:08
* FROM CLIP NAME: A041_07111338_C012.braw

032  AX       V     C        12:59:37:15 12:59:38:22 00:01:29:08 00:01:30:15
* FROM CLIP NAME: A041_07111256_C006.braw

033  AX       V     C        12:43:48:01 12:43:48:21 00:01:30:15 00:01:31:10
* FROM CLIP NAME: A041_07111243_C001.braw

034  AX       V     C        13:36:55:05 13:36:56:21 00:01:31:10 00:01:33:01
* FROM CLIP NAME: A041_07111335_C011.braw

035  AX       V     C        12:58:46:07 12:58:47:08 00:01:33:01 00:01:33:19
* FROM CLIP NAME: A041_07111256_C006.braw

036  AX       V     C        12:51:20:19 12:51:21:23 00:01:33:19 00:01:34:23
* FROM CLIP NAME: A041_07111251_C004.braw

037  AX       V     C        12:44:02:18 12:44:03:10 00:01:34:23 00:01:35:15
* FROM CLIP NAME: A041_07111243_C001.braw

038  AX       V     C        12:51:10:08 12:51:11:14 00:01:35:15 00:01:37:04
* FROM CLIP NAME: A041_07111251_C004.braw

039  AX       V     C        12:58:08:17 12:58:11:13 00:01:37:04 00:01:48:00
* FROM CLIP NAME: A041_07111256_C006.braw

040  AX       V     C        13:00:27:14 13:00:30:00 00:01:48:00 00:01:50:11
* FROM CLIP NAME: A041_07111256_C006.braw

041  AX       V     C        13:02:47:20 13:02:49:05 00:01:50:11 00:01:51:21
* FROM CLIP NAME: A041_07111302_C007.braw

042  AX       V     C        12:58:51:06 12:58:52:03 00:01:51:21 00:01:52:18
* FROM CLIP NAME: A041_07111256_C006.braw

043  AX       V     C        12:51:04:16 12:51:06:12 00:01:52:18 00:01:54:14
* FROM CLIP NAME: A041_07111251_C004.braw

044  AX       V     C        12:57:31:08 12:57:33:03 00:01:54:14 00:01:56:17
* FROM CLIP NAME: A041_07111256_C006.braw

045  AX       V     C        12:59:32:15 12:59:34:04 00:01:56:17 00:01:58:06
* FROM CLIP NAME: A041_07111256_C006.braw

046  AX       V     C        12:58:49:03 12:58:50:03 00:01:58:06 00:01:59:06
* FROM CLIP NAME: A041_07111256_C006.braw

047  AX       V     C        13:16:43:20 13:16:46:08 00:01:59:06 00:02:01:11
* FROM CLIP NAME: A041_07111315_C008.braw

048  AX       V     C        13:28:32:21 13:28:36:24 00:02:01:11 00:02:05:14
* FROM CLIP NAME: A041_07111328_C009.braw

049  AX       V     C        12:57:14:10 12:57:16:05 00:02:05:14 00:02:07:09
* FROM CLIP NAME: A041_07111256_C006.braw

050  AX       V     C        13:15:58:02 13:16:01:05 00:02:07:09 00:02:10:12
* FROM CLIP NAME: A041_07111315_C008.braw

051  AX       V     C        12:57:42:04 12:57:43:16 00:02:10:12 00:02:11:24
* FROM CLIP NAME: A041_07111256_C006.braw

052  AX       V     C        12:57:20:23 12:57:22:08 00:02:11:24 00:02:13:01
* FROM CLIP NAME: A041_07111256_C006.braw

